<svg xmlns="http://www.w3.org/2000/svg" viewBox="0 0 20.31 12.9"><defs><style>.cls-1{fill:#dfdfdf;}</style></defs><title>Asset 5</title><g id="Layer_2" data-name="Layer 2"><g id="Layer_1-2" data-name="Layer 1"><path class="cls-1" d="M0,6.13A6.44,6.44,0,0,1,6.45,0,6.54,6.54,0,0,1,10.76,1.6,23,23,0,0,1,9.12,3.29a4.26,4.26,0,0,0-5-.13A4.13,4.13,0,0,0,3.93,9.6c2,1.78,5.67.9,6.21-1.83-1.23,0-2.46,0-3.69,0,0-.73,0-1.47,0-2.2,2.05,0,4.11,0,6.17,0a7.39,7.39,0,0,1-1.16,5,6.37,6.37,0,0,1-7.34,1.95A6.45,6.45,0,0,1,0,6.13Z"/><path class="cls-1" d="M16.62,3.68h1.83c0,.61,0,1.23,0,1.84h1.84V7.36l-1.84,0q0,.92,0,1.84H16.62c0-.61,0-1.23,0-1.84l-1.84,0V5.53h1.84Q16.61,4.59,16.62,3.68Z"/></g></g></svg>