<svg xmlns="http://www.w3.org/2000/svg" viewBox="0 0 18 14.71"><defs><style>.cls-1{fill:#dfdfdf;}</style></defs><title>Asset 6</title><g id="Layer_2" data-name="Layer 2"><g id="Layer_1-2" data-name="Layer 1"><path class="cls-1" d="M5.85,9.43h0a1,1,0,0,0,.35.06A1.2,1.2,0,0,0,7,9.18a1,1,0,0,0,.36-.77v0s0,0,0,0A1,1,0,0,0,7,7.57a1.2,1.2,0,0,0-.79-.31L6,7.29H6A1.14,1.14,0,0,0,5.12,8h0a1,1,0,0,0-.05.32A1.13,1.13,0,0,0,5.29,9,1.08,1.08,0,0,0,5.85,9.43Z"/><path class="cls-1" d="M6.89,11.11h0a2.19,2.19,0,0,1-.32-.2l-.19-.1a.57.57,0,0,0-.23,0,.53.53,0,0,0-.21,0h0a.49.49,0,0,0-.25.21.56.56,0,0,0-.08.3.58.58,0,0,0,.07.28.54.54,0,0,0,.21.2,5.44,5.44,0,0,0,3,.86,6.68,6.68,0,0,0,2.77-.61h0c.11-.06.26-.12.4-.21a.9.9,0,0,0,.2-.16.59.59,0,0,0,.13-.24h0a.47.47,0,0,0,0-.12.49.49,0,0,0-.05-.22.61.61,0,0,0-.53-.33.48.48,0,0,0-.27.08,5.33,5.33,0,0,1-2.66.72,4.63,4.63,0,0,1-2-.45Z"/><path class="cls-1" d="M10.66,8.59h0a1.07,1.07,0,0,0,.41.65,1.19,1.19,0,0,0,.72.25,1.05,1.05,0,0,0,.33-.05h0a1.08,1.08,0,0,0,.58-.4,1.11,1.11,0,0,0,.23-.67A1,1,0,0,0,12.87,8h0a1.05,1.05,0,0,0-.43-.54,1.21,1.21,0,0,0-.66-.2,1.11,1.11,0,0,0-.38.07h0a1.12,1.12,0,0,0-.54.4,1.11,1.11,0,0,0-.21.64.91.91,0,0,0,0,.2Z"/><path class="cls-1" d="M1.24,8.76a3.72,3.72,0,0,0,0,.51,4.1,4.1,0,0,0,.63,2.16A6.71,6.71,0,0,0,5.09,14h0A10.66,10.66,0,0,0,9,14.71a11.46,11.46,0,0,0,2.65-.31h0a7.63,7.63,0,0,0,4.27-2.57h0a4.19,4.19,0,0,0,.89-2.56,3.9,3.9,0,0,0,0-.51A2.43,2.43,0,0,0,17.63,8,2.15,2.15,0,0,0,18,6.78s0-.08,0-.12h0a2.24,2.24,0,0,0-.58-1.3,2.44,2.44,0,0,0-1.21-.74h0a2.53,2.53,0,0,0-.61-.08,2.4,2.4,0,0,0-1.31.38,2.64,2.64,0,0,0-.29.2l-.11-.06h0A9.79,9.79,0,0,0,9.68,3.91,3.64,3.64,0,0,1,10,2.26h0a1.15,1.15,0,0,1,.9-.6h.22A3.83,3.83,0,0,1,12.61,2s0,.05,0,.08a2,2,0,0,0,.58,1.36,2.09,2.09,0,0,0,1.33.64l.25,0a2.18,2.18,0,0,0,1.4-.53,2,2,0,0,0,.7-1.32h0a1.66,1.66,0,0,0,0-.23A2,2,0,0,0,16.52.9a2,2,0,0,0-.93-.74h0A2,2,0,0,0,14.76,0,2.74,2.74,0,0,0,14,.12h0a2.25,2.25,0,0,0-1,.84A5,5,0,0,0,11.11.59a3.56,3.56,0,0,0-.7.07h0A2.25,2.25,0,0,0,9,1.77a4.58,4.58,0,0,0-.46,2.12A9.58,9.58,0,0,0,4.24,5L4,5.13a2.93,2.93,0,0,0-.7-.39h0a2.54,2.54,0,0,0-.88-.15H2.22a2.2,2.2,0,0,0-1.55.68A2.25,2.25,0,0,0,0,6.83H0A2.22,2.22,0,0,0,.4,8,2.52,2.52,0,0,0,1.24,8.76ZM14,1.42a1.08,1.08,0,0,1,.55-.35h0a.81.81,0,0,1,.24,0,1,1,0,0,1,.7.29,1,1,0,0,1,.31.68s0,0,0,.06h0a.94.94,0,0,1-.32.65,1,1,0,0,1-.68.27H14.7A1,1,0,0,1,14,2.72a1,1,0,0,1-.31-.65h0s0,0,0-.06A.92.92,0,0,1,14,1.42Zm1.63,4.25a1.4,1.4,0,0,1,.67.17,1.13,1.13,0,0,1,.47.48h0a.94.94,0,0,1,.12.45,1.12,1.12,0,0,1-.14.53,1.15,1.15,0,0,1-.27.33A5.56,5.56,0,0,0,15,5.81,1.36,1.36,0,0,1,15.58,5.67ZM6.11,5.44a10.07,10.07,0,0,1,5.07-.19l.71.19h0A6,6,0,0,1,15,7.52a3.07,3.07,0,0,1,.61,1.79,2.55,2.55,0,0,1-.06.53h0A3.24,3.24,0,0,1,15,11.13a4.68,4.68,0,0,1-1,1h0a8.27,8.27,0,0,1-4.22,1.44l-.75,0a8.93,8.93,0,0,1-4.29-1l-.3-.17a5.38,5.38,0,0,1-1.22-1A3.45,3.45,0,0,1,2.45,10a2.58,2.58,0,0,1-.09-.7A3.07,3.07,0,0,1,3,7.52H3A6.07,6.07,0,0,1,6.11,5.44ZM1.17,6.75h0A1.07,1.07,0,0,1,1.54,6a1.24,1.24,0,0,1,.79-.32h.11A1.43,1.43,0,0,1,3,5.82,5.4,5.4,0,0,0,1.58,7.64a1.39,1.39,0,0,1-.27-.32,1,1,0,0,1-.15-.51S1.17,6.77,1.17,6.75Z"/></g></g></svg>