<svg xmlns="http://www.w3.org/2000/svg" viewBox="0 0 18 18"><defs><style>.cls-1{fill:#dfdfdf;}</style></defs><title>Asset 7</title><g id="Layer_2" data-name="Layer 2"><g id="Layer_1-2" data-name="Layer 1"><path class="cls-1" d="M9,0A9,9,0,0,0,5.39,17.24a7.92,7.92,0,0,1,.16-2.07l1.16-4.9a3.45,3.45,0,0,1-.29-1.42c0-1.33.77-2.33,1.74-2.33A1.2,1.2,0,0,1,9.36,7.87a19.32,19.32,0,0,1-.79,3.19A1.39,1.39,0,0,0,10,12.8c1.71,0,2.85-2.19,2.85-4.79,0-2-1.33-3.45-3.74-3.45A4.26,4.26,0,0,0,4.67,8.87a2.6,2.6,0,0,0,.59,1.77.44.44,0,0,1,.13.5l-.18.72a.31.31,0,0,1-.45.23A3.47,3.47,0,0,1,2.91,8.65C2.91,6.09,5.07,3,9.35,3A5.38,5.38,0,0,1,15,8.18c0,3.53-2,6.17-4.86,6.17A2.58,2.58,0,0,1,8,13.23s-.52,2.07-.63,2.47a7.52,7.52,0,0,1-.91,1.93A9,9,0,1,0,9,0"/></g></g></svg>