<svg xmlns="http://www.w3.org/2000/svg" viewBox="0 0 52.83 58.33"><defs><style>.cls-1{fill:#dfdfdf;}.cls-2{fill:#ff4500;}.cls-3{fill:#dc4e41;}</style></defs><title>Asset 3</title><g id="Layer_2" data-name="Layer 2"><g id="Layer_1-2" data-name="Layer 1"><path class="cls-1" d="M40.68,52.52h0a1,1,0,0,0,.35.06,1.2,1.2,0,0,0,.79-.31,1,1,0,0,0,.36-.77v0s0,0,0,0a1,1,0,0,0-.36-.77,1.2,1.2,0,0,0-.79-.31l-.24,0h0a1.14,1.14,0,0,0-.86.75h0a1,1,0,0,0-.05.32,1.13,1.13,0,0,0,.22.66A1.08,1.08,0,0,0,40.68,52.52Z"/><path class="cls-1" d="M41.72,54.21h0a2.19,2.19,0,0,1-.32-.2l-.19-.1a.57.57,0,0,0-.23,0,.53.53,0,0,0-.21,0h0a.49.49,0,0,0-.25.21.56.56,0,0,0-.08.3.58.58,0,0,0,.07.28.54.54,0,0,0,.21.2,5.44,5.44,0,0,0,3,.86,6.68,6.68,0,0,0,2.77-.61h0c.11-.06.26-.12.4-.21a.9.9,0,0,0,.2-.16.59.59,0,0,0,.13-.24h0a.47.47,0,0,0,0-.12.49.49,0,0,0-.05-.22.61.61,0,0,0-.53-.33.48.48,0,0,0-.27.08,5.33,5.33,0,0,1-2.66.72,4.63,4.63,0,0,1-2-.45Z"/><path class="cls-1" d="M45.49,51.68h0a1.07,1.07,0,0,0,.41.65,1.19,1.19,0,0,0,.72.25,1.05,1.05,0,0,0,.33-.05h0a1.08,1.08,0,0,0,.58-.4,1.11,1.11,0,0,0,.23-.67,1,1,0,0,0-.07-.36h0a1.05,1.05,0,0,0-.43-.54,1.21,1.21,0,0,0-.66-.2,1.11,1.11,0,0,0-.38.07h0a1.12,1.12,0,0,0-.54.4,1.11,1.11,0,0,0-.21.64.91.91,0,0,0,0,.2Z"/><path class="cls-1" d="M36.07,51.85a3.72,3.72,0,0,0,0,.51,4.1,4.1,0,0,0,.63,2.16,6.71,6.71,0,0,0,3.26,2.55h0a10.66,10.66,0,0,0,3.89.72,11.46,11.46,0,0,0,2.65-.31h0a7.63,7.63,0,0,0,4.27-2.57h0a4.19,4.19,0,0,0,.89-2.56,3.9,3.9,0,0,0,0-.51,2.43,2.43,0,0,0,.87-.79,2.15,2.15,0,0,0,.37-1.19s0-.08,0-.12h0a2.24,2.24,0,0,0-.58-1.3A2.44,2.44,0,0,0,51,47.72h0a2.53,2.53,0,0,0-.61-.08,2.4,2.4,0,0,0-1.31.38,2.64,2.64,0,0,0-.29.2l-.11-.06h0A9.79,9.79,0,0,0,44.51,47a3.64,3.64,0,0,1,.32-1.65h0a1.15,1.15,0,0,1,.9-.6h.22a3.83,3.83,0,0,1,1.49.38s0,.05,0,.08A2,2,0,0,0,48,46.55a2.09,2.09,0,0,0,1.33.64l.25,0a2.18,2.18,0,0,0,1.4-.53,2,2,0,0,0,.7-1.32h0a1.66,1.66,0,0,0,0-.23,2,2,0,0,0-1.29-1.87h0a2,2,0,0,0-.82-.17,2.74,2.74,0,0,0-.78.12h0a2.25,2.25,0,0,0-1,.84,5,5,0,0,0-1.81-.37,3.56,3.56,0,0,0-.7.07h0a2.25,2.25,0,0,0-1.42,1.12A4.58,4.58,0,0,0,43.35,47a9.58,9.58,0,0,0-4.28,1.13l-.23.11a2.93,2.93,0,0,0-.7-.39h0a2.54,2.54,0,0,0-.88-.15H37a2.2,2.2,0,0,0-1.55.68,2.25,2.25,0,0,0-.66,1.56h0a2.22,2.22,0,0,0,.4,1.16A2.52,2.52,0,0,0,36.07,51.85Zm12.71-7.34a1.08,1.08,0,0,1,.55-.35h0a.81.81,0,0,1,.24,0,1,1,0,0,1,.7.29,1,1,0,0,1,.31.68s0,0,0,.06h0a.94.94,0,0,1-.32.65,1,1,0,0,1-.68.27h-.06a1,1,0,0,1-.67-.28,1,1,0,0,1-.31-.65h0s0,0,0-.06A.92.92,0,0,1,48.78,44.51Zm1.63,4.25a1.4,1.4,0,0,1,.67.17,1.13,1.13,0,0,1,.47.48h0a.94.94,0,0,1,.12.45,1.12,1.12,0,0,1-.14.53,1.15,1.15,0,0,1-.27.33A5.56,5.56,0,0,0,49.8,48.9,1.36,1.36,0,0,1,50.41,48.76Zm-9.47-.23A10.07,10.07,0,0,1,46,48.34l.71.19h0a6,6,0,0,1,3.15,2.08,3.07,3.07,0,0,1,.61,1.79,2.55,2.55,0,0,1-.06.53h0a3.24,3.24,0,0,1-.59,1.29,4.68,4.68,0,0,1-1,1h0a8.27,8.27,0,0,1-4.22,1.44l-.75,0a8.93,8.93,0,0,1-4.29-1l-.3-.17a5.38,5.38,0,0,1-1.22-1,3.45,3.45,0,0,1-.75-1.37,2.58,2.58,0,0,1-.09-.7,3.07,3.07,0,0,1,.6-1.8h0A6.07,6.07,0,0,1,40.94,48.53ZM36,49.84h0a1.07,1.07,0,0,1,.37-.75,1.24,1.24,0,0,1,.79-.32h.11a1.43,1.43,0,0,1,.59.15,5.4,5.4,0,0,0-1.45,1.82,1.39,1.39,0,0,1-.27-.32,1,1,0,0,1-.15-.51S36,49.86,36,49.84Z"/><path class="cls-2" d="M40.68,9.43h0a1,1,0,0,0,.35.06,1.2,1.2,0,0,0,.79-.31,1,1,0,0,0,.36-.77v0s0,0,0,0a1,1,0,0,0-.36-.77A1.2,1.2,0,0,0,41,7.26l-.24,0h0a1.14,1.14,0,0,0-.86.75h0a1,1,0,0,0-.05.32,1.13,1.13,0,0,0,.22.66A1.08,1.08,0,0,0,40.68,9.43Z"/><path class="cls-2" d="M41.72,11.11h0a2.19,2.19,0,0,1-.32-.2l-.19-.1a.57.57,0,0,0-.23,0,.53.53,0,0,0-.21,0h0a.49.49,0,0,0-.25.21.56.56,0,0,0-.08.3.58.58,0,0,0,.07.28.54.54,0,0,0,.21.2,5.44,5.44,0,0,0,3,.86,6.68,6.68,0,0,0,2.77-.61h0c.11-.06.26-.12.4-.21a.9.9,0,0,0,.2-.16.59.59,0,0,0,.13-.24h0a.47.47,0,0,0,0-.12.49.49,0,0,0-.05-.22.61.61,0,0,0-.53-.33.48.48,0,0,0-.27.08,5.33,5.33,0,0,1-2.66.72,4.63,4.63,0,0,1-2-.45Z"/><path class="cls-2" d="M45.49,8.59h0a1.07,1.07,0,0,0,.41.65,1.19,1.19,0,0,0,.72.25A1.05,1.05,0,0,0,47,9.44h0a1.08,1.08,0,0,0,.58-.4,1.11,1.11,0,0,0,.23-.67A1,1,0,0,0,47.7,8h0a1.05,1.05,0,0,0-.43-.54,1.21,1.21,0,0,0-.66-.2,1.11,1.11,0,0,0-.38.07h0a1.12,1.12,0,0,0-.54.4,1.11,1.11,0,0,0-.21.64.91.91,0,0,0,0,.2Z"/><path class="cls-2" d="M36.07,8.76a3.72,3.72,0,0,0,0,.51,4.1,4.1,0,0,0,.63,2.16A6.71,6.71,0,0,0,39.92,14h0a10.66,10.66,0,0,0,3.89.72,11.46,11.46,0,0,0,2.65-.31h0a7.63,7.63,0,0,0,4.27-2.57h0a4.19,4.19,0,0,0,.89-2.56,3.9,3.9,0,0,0,0-.51A2.43,2.43,0,0,0,52.45,8a2.15,2.15,0,0,0,.37-1.19s0-.08,0-.12h0a2.24,2.24,0,0,0-.58-1.3A2.44,2.44,0,0,0,51,4.63h0a2.53,2.53,0,0,0-.61-.08,2.4,2.4,0,0,0-1.31.38,2.64,2.64,0,0,0-.29.2l-.11-.06h0a9.79,9.79,0,0,0-4.19-1.15,3.64,3.64,0,0,1,.32-1.65h0a1.15,1.15,0,0,1,.9-.6h.22A3.83,3.83,0,0,1,47.44,2s0,.05,0,.08A2,2,0,0,0,48,3.46a2.09,2.09,0,0,0,1.33.64l.25,0A2.18,2.18,0,0,0,51,3.58a2,2,0,0,0,.7-1.32h0a1.66,1.66,0,0,0,0-.23A2,2,0,0,0,51.35.9a2,2,0,0,0-.93-.74h0A2,2,0,0,0,49.59,0a2.74,2.74,0,0,0-.78.12h0a2.25,2.25,0,0,0-1,.84A5,5,0,0,0,45.94.59a3.56,3.56,0,0,0-.7.07h0a2.25,2.25,0,0,0-1.42,1.12,4.58,4.58,0,0,0-.46,2.12A9.58,9.58,0,0,0,39.07,5l-.23.11a2.93,2.93,0,0,0-.7-.39h0a2.54,2.54,0,0,0-.88-.15H37a2.2,2.2,0,0,0-1.55.68,2.25,2.25,0,0,0-.66,1.56h0A2.22,2.22,0,0,0,35.23,8,2.52,2.52,0,0,0,36.07,8.76ZM48.78,1.42a1.08,1.08,0,0,1,.55-.35h0a.81.81,0,0,1,.24,0,1,1,0,0,1,.7.29,1,1,0,0,1,.31.68s0,0,0,.06h0a.94.94,0,0,1-.32.65,1,1,0,0,1-.68.27h-.06a1,1,0,0,1-.67-.28,1,1,0,0,1-.31-.65h0s0,0,0-.06A.92.92,0,0,1,48.78,1.42Zm1.63,4.25a1.4,1.4,0,0,1,.67.17,1.13,1.13,0,0,1,.47.48h0a.94.94,0,0,1,.12.45,1.12,1.12,0,0,1-.14.53,1.15,1.15,0,0,1-.27.33A5.56,5.56,0,0,0,49.8,5.81,1.36,1.36,0,0,1,50.41,5.67Zm-9.47-.23A10.07,10.07,0,0,1,46,5.25l.71.19h0a6,6,0,0,1,3.15,2.08,3.07,3.07,0,0,1,.61,1.79,2.55,2.55,0,0,1-.06.53h0a3.24,3.24,0,0,1-.59,1.29,4.68,4.68,0,0,1-1,1h0a8.27,8.27,0,0,1-4.22,1.44l-.75,0a8.93,8.93,0,0,1-4.29-1l-.3-.17a5.38,5.38,0,0,1-1.22-1A3.45,3.45,0,0,1,37.27,10a2.58,2.58,0,0,1-.09-.7,3.07,3.07,0,0,1,.6-1.8h0A6.07,6.07,0,0,1,40.94,5.44ZM36,6.75h0A1.07,1.07,0,0,1,36.37,6a1.24,1.24,0,0,1,.79-.32h.11a1.43,1.43,0,0,1,.59.15,5.4,5.4,0,0,0-1.45,1.82,1.39,1.39,0,0,1-.27-.32A1,1,0,0,1,36,6.82S36,6.77,36,6.75Z"/><path class="cls-1" d="M0,51.56a6.44,6.44,0,0,1,6.43-6.12A6.54,6.54,0,0,1,10.76,47a23,23,0,0,1-1.64,1.69,4.26,4.26,0,0,0-5-.13A4.13,4.13,0,0,0,3.93,55c2,1.78,5.67.9,6.21-1.83-1.23,0-2.46,0-3.69,0,0-.73,0-1.47,0-2.2,2.05,0,4.11,0,6.17,0a7.39,7.39,0,0,1-1.16,5A6.37,6.37,0,0,1,4.11,57.9,6.45,6.45,0,0,1,0,51.56Z"/><path class="cls-1" d="M16.62,49.11h1.83c0,.61,0,1.23,0,1.84h1.84V52.8l-1.84,0q0,.92,0,1.84H16.62c0-.61,0-1.23,0-1.84l-1.84,0V51h1.84Q16.61,50,16.62,49.11Z"/><path class="cls-3" d="M0,8.47A6.44,6.44,0,0,1,6.45,2.34a6.54,6.54,0,0,1,4.31,1.59A23,23,0,0,1,9.12,5.63a4.26,4.26,0,0,0-5-.13,4.13,4.13,0,0,0-.18,6.44c2,1.78,5.67.9,6.21-1.83-1.23,0-2.46,0-3.69,0,0-.73,0-1.47,0-2.2,2.05,0,4.11,0,6.17,0a7.39,7.39,0,0,1-1.16,5,6.37,6.37,0,0,1-7.34,1.95A6.45,6.45,0,0,1,0,8.47Z"/><path class="cls-3" d="M16.62,6h1.83c0,.61,0,1.23,0,1.84h1.84V9.7l-1.84,0q0,.92,0,1.84H16.62c0-.61,0-1.23,0-1.84l-1.84,0V7.87h1.84Q16.61,6.93,16.62,6Z"/></g></g></svg>